<svg height="480" version="1.1" width="640" xmlns="http://www.w3.org/2000/svg" stroke="#999" fill="none">
  <rect x="0" y="0" width="640" height="480" r="0" rx="0" ry="0" fill="#333" stroke="none" style=""/>
  <path d="M0,0L0,480" stroke-width="13" opacity="0.2"/>
  <path d="M18,0L18,480" stroke-width="9" opacity="0.2"/>
  <path d="M28,0L28,480" stroke-width="13" opacity="0.2"/>
  <path d="M38,0L38,480" stroke-width="1" opacity="0.2"/>
  <path d="M45,0L45,480" stroke-width="15" opacity="0.2"/>
  <path d="M56,0L56,480" stroke-width="9" opacity="0.2"/>
  <path d="M66,0L66,480" stroke-width="13" opacity="0.2"/>
  <path d="M69,0L69,480" stroke-width="11" opacity="0.2"/>
  <path d="M73,0L73,480" stroke-width="8" opacity="0.2"/>
  <path d="M85,0L85,480" stroke-width="8" opacity="0.2"/>
  <path d="M100,0L100,480" stroke-width="12" opacity="0.2"/>
  <path d="M106,0L106,480" stroke-width="15" opacity="0.2"/>
  <path d="M122,0L122,480" stroke-width="10" opacity="0.2"/>
  <path d="M126,0L126,480" stroke-width="14" opacity="0.2"/>
  <path d="M135,0L135,480" stroke-width="1" opacity="0.2"/>
  <path d="M152,0L152,480" stroke-width="5" opacity="0.2"/>
  <path d="M162,0L162,480" stroke-width="3" opacity="0.2"/>
  <path d="M180,0L180,480" stroke-width="4" opacity="0.2"/>
  <path d="M186,0L186,480" stroke-width="4" opacity="0.2"/>
  <path d="M193,0L193,480" stroke-width="15" opacity="0.2"/>
  <path d="M208,0L208,480" stroke-width="13" opacity="0.2"/>
  <path d="M210,0L210,480" stroke-width="4" opacity="0.2"/>
  <path d="M219,0L219,480" stroke-width="10" opacity="0.2"/>
  <path d="M238,0L238,480" stroke-width="3" opacity="0.2"/>
  <path d="M242,0L242,480" stroke-width="14" opacity="0.2"/>
  <path d="M244,0L244,480" stroke-width="14" opacity="0.2"/>
  <path d="M252,0L252,480" stroke-width="3" opacity="0.2"/>
  <path d="M265,0L265,480" stroke-width="6" opacity="0.2"/>
  <path d="M274,0L274,480" stroke-width="6" opacity="0.2"/>
  <path d="M281,0L281,480" stroke-width="9" opacity="0.2"/>
  <path d="M295,0L295,480" stroke-width="9" opacity="0.2"/>
  <path d="M312,0L312,480" stroke-width="7" opacity="0.2"/>
  <path d="M331,0L331,480" stroke-width="5" opacity="0.2"/>
  <path d="M331,0L331,480" stroke-width="8" opacity="0.2"/>
  <path d="M348,0L348,480" stroke-width="7" opacity="0.2"/>
  <path d="M359,0L359,480" stroke-width="8" opacity="0.2"/>
  <path d="M361,0L361,480" stroke-width="3" opacity="0.2"/>
  <path d="M380,0L380,480" stroke-width="7" opacity="0.2"/>
  <path d="M395,0L395,480" stroke-width="7" opacity="0.2"/>
  <path d="M396,0L396,480" stroke-width="1" opacity="0.2"/>
  <path d="M408,0L408,480" stroke-width="4" opacity="0.2"/>
  <path d="M421,0L421,480" stroke-width="7" opacity="0.2"/>
  <path d="M434,0L434,480" stroke-width="3" opacity="0.2"/>
  <path d="M449,0L449,480" stroke-width="9" opacity="0.2"/>
  <path d="M467,0L467,480" stroke-width="9" opacity="0.2"/>
  <path d="M483,0L483,480" stroke-width="13" opacity="0.2"/>
  <path d="M489,0L489,480" stroke-width="5" opacity="0.2"/>
  <path d="M493,0L493,480" stroke-width="8" opacity="0.2"/>
  <path d="M508,0L508,480" stroke-width="2" opacity="0.2"/>
  <path d="M527,0L527,480" stroke-width="11" opacity="0.2"/>
  <path d="M543,0L543,480" stroke-width="9" opacity="0.2"/>
  <path d="M551,0L551,480" stroke-width="12" opacity="0.2"/>
  <path d="M570,0L570,480" stroke-width="11" opacity="0.2"/>
  <path d="M582,0L582,480" stroke-width="15" opacity="0.2"/>
  <path d="M591,0L591,480" stroke-width="11" opacity="0.2"/>
  <path d="M595,0L595,480" stroke-width="14" opacity="0.2"/>
  <path d="M615,0L615,480" stroke-width="7" opacity="0.2"/>
  <path d="M635,0L635,480" stroke-width="8" opacity="0.2"/>
</svg>